<svg width="24" height="24" viewBox="0 0 24 24" fill="none" xmlns="http://www.w3.org/2000/svg">
<path d="M18.4352 16.3744C18.1423 16.0815 17.6675 16.0815 17.3746 16.3744C17.0817 16.6673 17.0817 17.1422 17.3746 17.4351L18.4352 16.3744ZM20.7005 20.7611C20.9934 21.054 21.4683 21.054 21.7612 20.7611C22.0541 20.4682 22.0541 19.9933 21.7612 19.7004L20.7005 20.7611ZM17.3746 17.4351L20.7005 20.7611L21.7612 19.7004L18.4352 16.3744L17.3746 17.4351ZM11.2528 16.9862C7.53399 16.9862 4.51929 13.9715 4.51929 10.2527H3.01929C3.01929 14.7999 6.70557 18.4862 11.2528 18.4862V16.9862ZM17.9864 10.2527C17.9864 13.9715 14.9716 16.9862 11.2528 16.9862V18.4862C15.8001 18.4862 19.4864 14.7999 19.4864 10.2527H17.9864ZM11.2528 3.51913C14.9716 3.51913 17.9864 6.53384 17.9864 10.2527H19.4864C19.4864 5.70541 15.8001 2.01913 11.2528 2.01913V3.51913ZM11.2528 2.01913C6.70557 2.01913 3.01929 5.70541 3.01929 10.2527H4.51929C4.51929 6.53384 7.53399 3.51913 11.2528 3.51913V2.01913Z" fill="white"/>
</svg>
